<svg width="48" height="58" viewBox="0 0 48 58" fill="none" xmlns="http://www.w3.org/2000/svg">
<path d="M44.824 48.482C45.088 48.482 45.2933 48.548 45.44 48.68C45.5867 48.812 45.66 48.9953 45.66 49.23C45.66 49.4793 45.5867 49.67 45.44 49.802C45.308 49.934 45.1027 50 44.824 50H37.542C37.2633 50 37.0507 49.934 36.904 49.802C36.772 49.67 36.706 49.4793 36.706 49.23C36.706 48.9953 36.7793 48.812 36.926 48.68C37.0727 48.548 37.278 48.482 37.542 48.482H40.27V36.69L37.872 38.252C37.7547 38.3253 37.6373 38.362 37.52 38.362C37.3147 38.362 37.1313 38.2667 36.97 38.076C36.8233 37.8853 36.75 37.68 36.75 37.46C36.75 37.152 36.8673 36.932 37.102 36.8L40.446 34.622C40.6953 34.4607 40.952 34.38 41.216 34.38C41.4653 34.38 41.6707 34.4607 41.832 34.622C41.9933 34.7833 42.074 35.0107 42.074 35.304V48.482H44.824Z" fill="black"/>
<path d="M2.83333 4.25H11.3333C12.8362 4.25 14.2776 4.84702 15.3403 5.90973C16.403 6.97243 17 8.41377 17 9.91667V29.75C17 28.6228 16.5522 27.5418 15.7552 26.7448C14.9582 25.9478 13.8772 25.5 12.75 25.5H2.83333V4.25Z" stroke="black" stroke-width="2" stroke-linecap="round" stroke-linejoin="round"/>
<path d="M31.1667 4.25H22.6667C21.1638 4.25 19.7224 4.84702 18.6597 5.90973C17.597 6.97243 17 8.41377 17 9.91667V29.75C17 28.6228 17.4478 27.5418 18.2448 26.7448C19.0418 25.9478 20.1228 25.5 21.25 25.5H31.1667V4.25Z" stroke="black" stroke-width="2" stroke-linecap="round" stroke-linejoin="round"/>
</svg>
