<svg width="48" height="58" viewBox="0 0 48 58" fill="none" xmlns="http://www.w3.org/2000/svg">
<path d="M45.176 48.482C45.44 48.482 45.6453 48.548 45.792 48.68C45.9387 48.812 46.012 48.9953 46.012 49.23C46.012 49.7433 45.7333 50 45.176 50H36.552C36.3027 50 36.0973 49.9267 35.936 49.78C35.7747 49.6187 35.694 49.428 35.694 49.208C35.694 48.9293 35.7967 48.6873 36.002 48.482L41.304 42.652C42.0373 41.8307 42.5653 41.0973 42.888 40.452C43.2253 39.792 43.394 39.132 43.394 38.472C43.394 37.6213 43.1447 36.9687 42.646 36.514C42.162 36.0593 41.4727 35.832 40.578 35.832C39.874 35.832 39.1993 35.964 38.554 36.228C37.9087 36.4773 37.2633 36.866 36.618 37.394C36.398 37.57 36.1927 37.658 36.002 37.658C35.8407 37.658 35.7013 37.5847 35.584 37.438C35.4667 37.2767 35.408 37.086 35.408 36.866C35.408 36.558 35.5253 36.3087 35.76 36.118C36.3613 35.5607 37.0947 35.1207 37.96 34.798C38.8253 34.4753 39.7127 34.314 40.622 34.314C42.0153 34.314 43.1227 34.6807 43.944 35.414C44.78 36.1473 45.198 37.1373 45.198 38.384C45.198 39.2787 44.9927 40.1367 44.582 40.958C44.186 41.7793 43.526 42.696 42.602 43.708L38.202 48.482H45.176Z" fill="black"/>
<path d="M2.83333 4.25H11.3333C12.8362 4.25 14.2776 4.84702 15.3403 5.90973C16.403 6.97243 17 8.41377 17 9.91667V29.75C17 28.6228 16.5522 27.5418 15.7552 26.7448C14.9582 25.9478 13.8772 25.5 12.75 25.5H2.83333V4.25Z" stroke="black" stroke-width="2" stroke-linecap="round" stroke-linejoin="round"/>
<path d="M31.1667 4.25H22.6667C21.1638 4.25 19.7224 4.84702 18.6597 5.90973C17.597 6.97243 17 8.41377 17 9.91667V29.75C17 28.6228 17.4478 27.5418 18.2448 26.7448C19.0418 25.9478 20.1228 25.5 21.25 25.5H31.1667V4.25Z" stroke="black" stroke-width="2" stroke-linecap="round" stroke-linejoin="round"/>
</svg>
