<svg width="48" height="58" viewBox="0 0 48 58" fill="none" xmlns="http://www.w3.org/2000/svg">
<path d="M42.668 42.036C43.6067 42.3 44.318 42.7547 44.802 43.4C45.3007 44.0453 45.55 44.8447 45.55 45.798C45.55 47.1473 45.0953 48.2107 44.186 48.988C43.2767 49.7653 42.0373 50.154 40.468 50.154C39.5147 50.154 38.598 49.9927 37.718 49.67C36.8527 49.3473 36.1193 48.9073 35.518 48.35C35.2833 48.13 35.166 47.8807 35.166 47.602C35.166 47.382 35.2247 47.1987 35.342 47.052C35.4593 46.9053 35.5987 46.832 35.76 46.832C35.9653 46.832 36.1707 46.9127 36.376 47.074C37.0507 47.6167 37.7107 48.0127 38.356 48.262C39.0013 48.5113 39.698 48.636 40.446 48.636C41.5313 48.636 42.3527 48.3867 42.91 47.888C43.482 47.3893 43.768 46.6707 43.768 45.732C43.768 43.84 42.58 42.894 40.204 42.894H39.038C38.8033 42.894 38.6127 42.8207 38.466 42.674C38.334 42.5127 38.268 42.3293 38.268 42.124C38.268 41.9187 38.334 41.7427 38.466 41.596C38.6127 41.4493 38.8033 41.376 39.038 41.376H39.852C40.996 41.376 41.876 41.1267 42.492 40.628C43.108 40.1147 43.416 39.3813 43.416 38.428C43.416 37.592 43.1667 36.954 42.668 36.514C42.1693 36.0593 41.4653 35.832 40.556 35.832C39.8667 35.832 39.1993 35.964 38.554 36.228C37.9087 36.4773 37.2633 36.866 36.618 37.394C36.4127 37.5553 36.2073 37.636 36.002 37.636C35.8407 37.636 35.7013 37.5627 35.584 37.416C35.4667 37.2693 35.408 37.086 35.408 36.866C35.408 36.5873 35.5253 36.338 35.76 36.118C36.3613 35.5607 37.0873 35.1207 37.938 34.798C38.8033 34.4753 39.6907 34.314 40.6 34.314C42.008 34.314 43.1227 34.6733 43.944 35.392C44.78 36.096 45.198 37.0493 45.198 38.252C45.198 39.1467 44.9707 39.9313 44.516 40.606C44.076 41.266 43.46 41.7427 42.668 42.036Z" fill="black"/>
<path d="M2.83333 4.25H11.3333C12.8362 4.25 14.2776 4.84702 15.3403 5.90973C16.403 6.97243 17 8.41377 17 9.91667V29.75C17 28.6228 16.5522 27.5418 15.7552 26.7448C14.9582 25.9478 13.8772 25.5 12.75 25.5H2.83333V4.25Z" stroke="black" stroke-width="2" stroke-linecap="round" stroke-linejoin="round"/>
<path d="M31.1667 4.25H22.6667C21.1638 4.25 19.7224 4.84702 18.6597 5.90973C17.597 6.97243 17 8.41377 17 9.91667V29.75C17 28.6228 17.4478 27.5418 18.2448 26.7448C19.0418 25.9478 20.1228 25.5 21.25 25.5H31.1667V4.25Z" stroke="black" stroke-width="2" stroke-linecap="round" stroke-linejoin="round"/>
</svg>
